<svg xmlns="http://www.w3.org/2000/svg" data-name="Слой 3" viewBox="0 0 68 85" x="0px" y="0px"><path d="M66.2932266,2.8784219c-.40386-.4748251-.9547503-.7662629-1.5378445-.8518728-.504406-.0740981-1.0330014,.0057559-1.5113237,.2540609-5.3065727,2.7545246-9.8369009,4.3897822-13.5907657,4.9058457l-.0005829-.0000729c-3.5238476,.4493243-5.6777188,.6426933-6.4613223,.580617-.1485604-.0118761-.2972666-.0102003-.4446613,.0044444l-.0085974-.0012386c-.0289252-.0035701-.0598176-.0077231-.0924586-.0125318-.6319829-.0928229-1.9978063-.4224391-4.0978344-.98914-.0967574-.0260837-.1935876-.0460472-.2903449-.0602548-1.2334377-.1811286-2.4350359,.5854257-2.767785,1.8187177-.3588328,1.3300494,.4283407,2.6992243,1.758463,3.0581299,2.2525958,.6078664,3.8519337,.9814169,4.797868,1.1202141,.1900175,.027978,.3537327,.0463386,.4910727,.0553003,.1962834,.0128233,.3844065,.0117304,.5640779-.0033515l-.0085246-.0012386c1.2398494,.0394898,3.6453043-.1685239,7.2159277-.6240412l.0239708-.0032058c.1707826-.0233879,.3516197-.0635334,.5249524-.09071C42.5955428,19.700286,26.2509811,36.2742093,1.805905,61.779609c-.9531474,.9946044-.9196321,2.5736146,.0750452,3.5268348,.3885595,.3725304,.8664446,.5943146,1.3613061,.6669555,.7716545,.1133693,1.5846932-.1359557,2.1654559-.741855C33.9895296,35.4099504,51.3190783,17.9512219,57.4008028,12.8505499c-1.2464796,4.3309118-1.3682277,8.8235715-.3253903,13.4835895,.2322759,1.0374458,1.0797043,1.778135,2.0724144,1.9239268,.293405,.0431328,.5997062,.0342439,.9065173-.0343897,1.3444027-.3007638,2.190301-1.6346019,1.8895371-2.9789317-1.5236369-6.8093719-.0405099-13.2296014,4.4501098-19.2606157,.6940592-.9322367,.6522378-2.2203919-.1007646-3.1057072Z"/><text x="0" y="83" fill="#000000" font-size="5px" font-weight="bold" font-family="'Helvetica Neue', Helvetica, Arial-Unicode, Arial, Sans-serif">Created by Doodle Icons</text><text x="0" y="88" fill="#000000" font-size="5px" font-weight="bold" font-family="'Helvetica Neue', Helvetica, Arial-Unicode, Arial, Sans-serif">from the Noun Project</text></svg>